<svg id="Layer_1" xmlns="http://www.w3.org/2000/svg" viewBox="0 0 180 120"><style>.st0{fill:#F43B03;} .st1{fill:#333;}</style><g id="XMLID_1753_"><g id="XMLID_1769_"><path id="XMLID_1794_" class="st0" d="M97.8 114.1s-2.2-.1-6-.6c-1.9-.2-4.2-.6-6.8-1-1.3-.2-2.7-.5-4.2-.8-1.5-.3-3-.7-4.6-1.1-6.3-1.7-13.7-4-21.1-7.5-3.7-1.7-7.5-3.7-11.1-6.1-3.6-2.4-7.1-5-10.2-8.2-3.1-3.1-5.8-6.7-7.9-10.5-2-3.9-3.5-8-4.1-12.1-.7-4.1-.7-8.1-.2-11.9.4-3.8 1.2-7.3 2.2-10.4.9-3.2 2.1-5.9 3.3-8.4 1.2-2.4 2.2-4.5 3.2-6.1.9-1.7 1.7-2.9 2.3-3.8.5-.9.8-1.3.8-1.3s-.3.5-.7 1.4c-.5.9-1.2 2.2-2 3.9-.8 1.7-1.8 3.8-2.8 6.3-.5 1.2-1 2.5-1.5 3.9s-1 2.9-1.5 4.4c-.9 3.1-1.7 6.5-2.2 10.2-.4 3.7-.4 7.6.2 11.6.6 4 2 8 4 11.7 2 3.7 4.6 7.2 7.7 10.2 3 3.1 6.5 5.7 10.1 8 3.6 2.3 7.3 4.3 11 6 7.4 3.4 14.7 5.7 20.9 7.4 3.2.8 6.1 1.5 8.6 2.2 2.6.6 4.8 1.1 6.7 1.5 3.7.8 5.9 1.1 5.9 1.1z"/><path id="XMLID_1791_" class="st0" d="M95.5 111.8s-2.2-.1-6-.6c-1.9-.2-4.2-.6-6.8-1-1.3-.2-2.7-.5-4.2-.8-1.5-.3-3-.7-4.6-1.1-6.3-1.7-13.7-4-21.1-7.5-3.7-1.7-7.5-3.7-11.1-6.1-3.6-2.4-7.1-5-10.2-8.2-3.1-3.1-5.8-6.7-7.9-10.5-2-3.9-3.5-8-4.1-12.1-.7-4.1-.7-8.1-.2-11.9.4-3.8 1.2-7.3 2.2-10.4.9-3.2 2.1-5.9 3.3-8.4 1.2-2.4 2.2-4.5 3.2-6.1.9-1.7 1.7-2.9 2.3-3.8.5-.9.8-1.3.8-1.3s-.3.5-.7 1.4c-.5.9-1.2 2.2-2 3.9-.8 1.7-1.8 3.8-2.8 6.3-.5 1.2-1 2.5-1.5 3.9s-1 2.9-1.5 4.4c-.9 3.1-1.7 6.5-2.2 10.2-.4 3.7-.4 7.6.2 11.6.6 4 2 8 4 11.7 2 3.7 4.6 7.2 7.7 10.2 3 3.1 6.5 5.7 10.1 8 3.6 2.3 7.3 4.3 11 6 7.4 3.4 14.7 5.7 20.9 7.4 3.2.8 6.1 1.5 8.6 2.2 2.6.6 4.8 1.1 6.7 1.5 3.7.8 5.9 1.1 5.9 1.1z"/><path id="XMLID_1788_" class="st0" d="M93.2 109.5s-2.2-.1-6-.6c-1.9-.2-4.2-.6-6.8-1-1.3-.2-2.7-.5-4.2-.8-1.5-.3-3-.7-4.6-1.1-6.3-1.7-13.7-4-21.1-7.5-3.7-1.7-7.5-3.7-11.1-6.1-3.6-2.4-7.1-5-10.2-8.2-3.1-3.1-5.8-6.7-7.9-10.5-2-3.9-3.5-8-4.1-12.1-.7-4.1-.7-8.1-.2-11.9.4-3.8 1.2-7.3 2.2-10.4.9-3.2 2.1-5.9 3.3-8.4 1.2-2.4 2.2-4.5 3.2-6.1.9-1.7 1.7-2.9 2.3-3.8.5-.9.8-1.3.8-1.3s-.3.5-.7 1.4c-.5.9-1.2 2.2-2 3.9-.8 1.7-1.8 3.8-2.8 6.3-.5 1.2-1 2.5-1.5 3.9s-1 2.9-1.5 4.4c-.9 3.1-1.7 6.5-2.2 10.2-.4 3.7-.4 7.6.2 11.6.6 4 2 8 4 11.7 2 3.7 4.6 7.2 7.7 10.2 3 3.1 6.5 5.7 10.1 8 3.6 2.3 7.3 4.3 11 6 7.4 3.4 14.7 5.7 20.9 7.4 3.2.8 6.1 1.5 8.6 2.2 2.6.6 4.8 1.1 6.7 1.5 3.7.8 5.9 1.1 5.9 1.1z"/><path id="XMLID_1785_" class="st0" d="M90.8 107.2s-2.2-.1-6-.6c-1.9-.2-4.2-.6-6.8-1-1.3-.2-2.7-.5-4.2-.8-1.5-.3-3-.7-4.6-1.1-6.3-1.7-13.7-4-21.1-7.5-3.7-1.7-7.5-3.7-11.1-6.1-3.6-2.4-7.1-5-10.2-8.2-3.1-3.1-5.8-6.7-7.9-10.5-2-3.9-3.5-8-4.1-12.1-.7-4.1-.7-8.1-.2-11.9.4-3.8 1.2-7.3 2.2-10.4.9-3.2 2.1-5.9 3.3-8.4 1.2-2.4 2.2-4.5 3.2-6.1.9-1.7 1.7-2.9 2.3-3.8.5-.9.8-1.3.8-1.3s-.3.5-.7 1.4c-.5.9-1.2 2.2-2 3.9-.8 1.7-1.8 3.8-2.8 6.3-.5 1.2-1 2.5-1.5 3.9s-1 2.9-1.5 4.4c-.9 3.1-1.7 6.5-2.2 10.2-.4 3.7-.4 7.6.2 11.6.6 4 2 8 4 11.7 2 3.7 4.6 7.2 7.7 10.2 3 3.1 6.5 5.7 10.1 8 3.6 2.3 7.3 4.3 11 6 7.4 3.4 14.7 5.7 20.9 7.4 3.2.8 6.1 1.5 8.6 2.2 2.6.6 4.8 1.1 6.7 1.5 3.8.8 5.9 1.1 5.9 1.1z"/><path id="XMLID_1782_" class="st0" d="M88.5 104.9s-2.2-.1-6-.6c-1.9-.2-4.2-.6-6.8-1-1.3-.2-2.7-.5-4.2-.8-1.5-.3-3-.7-4.6-1.1-6.3-1.7-13.7-4-21.1-7.5-3.7-1.7-7.5-3.7-11.1-6.1-3.6-2.4-7.1-5-10.2-8.2-3.1-3.1-5.8-6.7-7.9-10.5-2-3.9-3.5-8-4.1-12.1-.7-4.1-.7-8.1-.2-11.9.4-3.8 1.2-7.3 2.2-10.4.9-3.2 2.1-5.9 3.3-8.4 1.2-2.4 2.2-4.5 3.2-6.1.9-1.7 1.7-2.9 2.3-3.8.5-.9.8-1.3.8-1.3s-.3.5-.7 1.4c-.5.9-1.2 2.2-2 3.9-.8 1.7-1.8 3.8-2.8 6.3-.5 1.2-1 2.5-1.5 3.9s-1 2.9-1.5 4.4c-.9 3.1-1.7 6.5-2.2 10.2-.4 3.8-.4 7.7.3 11.7.6 4 2 8 4 11.7 2 3.7 4.6 7.2 7.7 10.2 3 3.1 6.5 5.7 10.1 8 3.6 2.3 7.3 4.3 11 6 7.4 3.4 14.7 5.7 20.9 7.4 3.2.8 6.1 1.5 8.6 2.2 2.6.6 4.8 1.1 6.7 1.5 3.7.7 5.8 1 5.8 1z"/><path id="XMLID_1779_" class="st0" d="M86.2 102.6s-2.2-.1-6-.6c-1.9-.2-4.2-.6-6.8-1-1.3-.2-2.7-.5-4.2-.8-1.5-.3-3-.7-4.6-1.1-6.3-1.7-13.7-4-21.1-7.5-3.7-1.7-7.5-3.7-11.1-6.1-3.6-2.4-7.1-5-10.2-8.2-3.1-3.1-5.8-6.7-7.9-10.5-2-3.9-3.5-8-4.1-12.1-.7-4.1-.7-8.1-.2-11.9.4-3.8 1.2-7.3 2.2-10.4.9-3.2 2.1-5.9 3.3-8.4 1.2-2.4 2.2-4.5 3.2-6.1.9-1.7 1.7-2.9 2.3-3.8.5-.9.8-1.3.8-1.3s-.3.5-.7 1.4c-.5.9-1.2 2.2-2 3.9-.8 1.7-1.8 3.8-2.8 6.3-.5 1.2-1 2.5-1.5 3.9s-1 2.9-1.5 4.4c-.9 3.1-1.7 6.5-2.2 10.2-.4 3.7-.4 7.6.2 11.6.6 4 2 8 4 11.7 2 3.7 4.6 7.2 7.7 10.2 3 3.1 6.5 5.7 10.1 8 3.6 2.3 7.3 4.3 11 6 7.4 3.4 14.7 5.7 20.9 7.4 3.2.8 6.1 1.5 8.6 2.2 2.6.6 4.8 1.1 6.7 1.5 3.8.7 5.9 1.1 5.9 1.1z"/><path id="XMLID_1776_" class="st0" d="M83.9 100.2s-2.2-.1-6-.6c-1.9-.2-4.2-.6-6.8-1-1.3-.2-2.7-.5-4.2-.8-1.5-.3-3-.7-4.6-1.1-6.3-1.7-13.7-4-21.1-7.5-3.7-1.7-7.5-3.7-11.1-6.1-3.6-2.4-7.1-5-10.2-8.2-3.1-3.1-5.8-6.7-7.9-10.5-2-3.9-3.5-8-4.1-12.1-.7-4.1-.7-8.1-.2-11.9.4-3.8 1.2-7.3 2.2-10.4.9-3.2 2.1-5.9 3.3-8.4 1.2-2.4 2.2-4.5 3.2-6.1.9-1.7 1.7-2.9 2.3-3.8.5-.9.8-1.3.8-1.3s-.3.5-.7 1.4c-.5.9-1.2 2.2-2 3.9C16 17.4 15 19.5 14 22c-.5 1.2-1 2.5-1.5 3.9s-1 2.9-1.5 4.4c-1 3.3-1.8 6.7-2.2 10.4-.4 3.7-.4 7.6.2 11.6.6 4 2 8 4 11.7 2 3.7 4.6 7.2 7.7 10.2 3 3.1 6.5 5.7 10.1 8 3.6 2.3 7.3 4.3 11 6 7.4 3.4 14.7 5.7 20.9 7.4 3.2.8 6.1 1.5 8.6 2.2 2.6.6 4.8 1.1 6.7 1.5 3.8.6 5.9.9 5.9.9z"/><path id="XMLID_1773_" class="st0" d="M81.6 97.9s-2.2-.1-6-.6c-1.9-.2-4.2-.6-6.8-1-1.3-.2-2.7-.5-4.2-.8-1.5-.3-3-.7-4.6-1.1-6.3-1.7-13.7-4-21.1-7.5-3.7-1.7-7.5-3.7-11.1-6.1-3.6-2.4-7.1-5-10.2-8.2-3.1-3.1-5.8-6.7-7.9-10.5-2-3.9-3.5-8-4.1-12.1-.7-4-.7-8-.2-11.8.4-3.8 1.2-7.3 2.2-10.4.9-3.2 2.1-5.9 3.3-8.4 1.2-2.4 2.2-4.5 3.2-6.1.9-1.7 1.7-2.9 2.3-3.8.5-.9.8-1.3.8-1.3s-.3.5-.7 1.4c-.5.9-1.2 2.2-2 3.9-.8 1.7-1.8 3.8-2.8 6.3-.5 1.2-1 2.5-1.5 3.9s-1 2.9-1.5 4.4c-.9 3.1-1.7 6.5-2.2 10.2-.4 3.7-.4 7.7.2 11.6.6 4 2 8 4 11.7 2 3.7 4.6 7.2 7.7 10.2 3 3.1 6.5 5.7 10.1 8 3.6 2.3 7.3 4.3 11 6 7.4 3.4 14.7 5.7 20.9 7.4 3.2.8 6.1 1.5 8.6 2.2 2.6.6 4.8 1.1 6.7 1.5 3.8.7 5.9 1 5.9 1z"/><path id="XMLID_1770_" class="st0" d="M79.3 95.6s-2.2-.1-6-.6c-1.9-.2-4.2-.6-6.8-1-1.3-.2-2.7-.5-4.2-.8-1.5-.3-3-.7-4.6-1.1-6.3-1.7-13.7-4-21.1-7.5-3.7-1.7-7.5-3.7-11.1-6.1-3.6-2.4-7.1-5-10.2-8.2-3.1-3.1-5.8-6.7-7.9-10.5-2-3.9-3.5-8-4.1-12.1-.7-4.1-.7-8.1-.2-11.9.4-3.8 1.2-7.3 2.2-10.4.9-3.2 2.1-5.9 3.3-8.4 1.2-2.4 2.2-4.5 3.2-6.1.9-1.7 1.7-2.9 2.3-3.8.5-.9.8-1.3.8-1.3s-.3.5-.7 1.4c-.5.9-1.2 2.2-2 3.9-.8 1.7-1.8 3.8-2.8 6.3-.5 1.2-1 2.5-1.5 3.9s-1 2.9-1.5 4.4c-.9 3.1-1.7 6.5-2.2 10.2-.4 3.7-.4 7.6.2 11.6.6 4 2 8 4 11.7 2 3.7 4.6 7.2 7.7 10.2 3 3.1 6.5 5.7 10.1 8 3.6 2.3 7.3 4.3 11 6 7.4 3.4 14.7 5.7 20.9 7.4 3.2.8 6.1 1.5 8.6 2.2 2.6.6 4.8 1.1 6.7 1.5 3.7.8 5.9 1.1 5.9 1.1z"/></g><path id="XMLID_1767_" class="st1" d="M43.9 67.2h14.4v2H39.6l14.7-18.7H40.5v-1.9h18L43.9 67.2z"/><path id="XMLID_1764_" class="st1" d="M79.7 69.2v-3.5c-2.2 2.6-4.9 3.9-8.2 3.9-3 0-5.5-1-7.5-3-2.1-2.1-3.1-4.6-3.1-7.6s1-5.5 3-7.5c2.1-2.1 4.6-3.1 7.6-3.1 3.3 0 6 1.3 8.2 3.9v-3.6h2v20.6h-2zm-2.1-16.3c-1.7-1.7-3.7-2.5-6.1-2.5-2.4 0-4.4.8-6.1 2.5-1.7 1.7-2.5 3.7-2.5 6.1 0 2.4.8 4.4 2.5 6.1 1.7 1.7 3.7 2.5 6.1 2.5 2.4 0 4.4-.8 6.1-2.5 1.7-1.7 2.5-3.7 2.5-6.1 0-2.4-.8-4.4-2.5-6.1z"/><path id="XMLID_1761_" class="st1" d="M105.1 69.2v-3.5c-2.2 2.6-4.9 3.9-8.2 3.9-3 0-5.5-1-7.5-3-2.1-2.1-3.1-4.6-3.1-7.6s1-5.5 3-7.5c2.1-2.1 4.6-3.1 7.6-3.1 3.3 0 6 1.3 8.2 3.9v-3.6h2v20.6h-2zM103 52.9c-1.7-1.7-3.7-2.5-6.1-2.5-2.4 0-4.4.8-6.1 2.5-1.7 1.7-2.5 3.7-2.5 6.1 0 2.4.8 4.4 2.5 6.1 1.7 1.7 3.7 2.5 6.1 2.5 2.4 0 4.4-.8 6.1-2.5 1.7-1.7 2.5-3.7 2.5-6.1 0-2.4-.8-4.4-2.5-6.1z"/><path id="XMLID_1759_" class="st1" d="M121 70.1l-9.7-21.5h2.2L121 65l7.5-16.4h2.3L121 70.1z"/><path id="XMLID_1757_" class="st1" d="M139.9 78.9h-2.3l5.3-11.6-8.7-18.7h2.2l7.7 16.3 7.6-16.3h2.2l-14 30.3z"/><path id="XMLID_1754_" class="st1" d="M175.2 69.2v-3.5c-2.2 2.6-4.9 3.9-8.2 3.9-3 0-5.5-1-7.5-3-2.1-2.1-3.1-4.6-3.1-7.6s1-5.5 3-7.5c2.1-2.1 4.6-3.1 7.6-3.1 3.3 0 6 1.3 8.2 3.9v-3.6h2v20.6h-2zM173 52.9c-1.7-1.7-3.7-2.5-6.1-2.5-2.4 0-4.4.8-6.1 2.5-1.7 1.7-2.5 3.7-2.5 6.1 0 2.4.8 4.4 2.5 6.1 1.7 1.7 3.7 2.5 6.1 2.5 2.4 0 4.4-.8 6.1-2.5 1.7-1.7 2.5-3.7 2.5-6.1.1-2.4-.8-4.4-2.5-6.1z"/></g></svg>